<svg width="87" height="87" viewBox="0 0 87 87" fill="none" xmlns="http://www.w3.org/2000/svg">
<rect width="87" height="87" fill="#FF5A44" fill-opacity="0.1"/>
<mask id="mask0" mask-type="alpha" maskUnits="userSpaceOnUse" x="0" y="0" width="87" height="87">
<rect width="87" height="87" fill="#FF4C60"/>
</mask>
<g mask="url(#mask0)">
<path d="M39.9798 12.2144C29.6538 13.6213 28.6724 19.4757 28.6677 21.6239C28.6668 22.0742 28.4173 22.4918 28.0122 22.6888C22.6411 25.3017 25.5368 37.8949 25.5368 37.8949C26.0763 37.9308 26.6409 38.1492 27.0618 38.3533C27.165 37.7116 27.3333 37.0798 27.571 36.4691C27.7522 36.0037 27.9785 35.5337 28.2617 35.0895C28.7529 34.3188 28.9766 33.4099 28.9099 32.5009C28.7169 29.8737 28.8098 24.6969 32.2778 23.1367C35.2157 21.8148 38.8194 22.5802 41.1177 23.3445C42.6101 23.8407 44.2268 23.8407 45.7195 23.3445C48.0175 22.5802 51.6214 21.8148 54.5593 23.1367C58.0172 24.6926 58.1196 29.8443 57.9287 32.4784C57.8624 33.3941 58.0801 34.3127 58.5751 35.0893C58.8672 35.5477 59.0992 36.0339 59.2832 36.5138C59.5119 37.1105 59.6746 37.7271 59.7751 38.3531C60.3058 38.0959 61.0644 37.8159 61.7134 37.9076C61.7928 35.1539 62.047 32.1855 62.047 32.1855C65.1071 17.1984 51.0979 10.6995 39.9798 12.2144Z" fill="#665364"/>
<path d="M39.9801 12.2144C29.6542 13.6213 28.6728 19.4757 28.6683 21.6237C28.6673 22.0743 28.4178 22.4917 28.0127 22.6886C22.6414 25.3015 25.5374 37.8947 25.5374 37.8947C26.0769 37.9306 26.6414 38.1491 27.0624 38.3531C27.1655 37.7114 27.3338 37.0797 27.5715 36.4689C27.7527 36.0035 27.9792 35.5335 28.2623 35.0893C28.7534 34.3187 28.9771 33.4097 28.9105 32.5007C28.7175 29.8736 28.8103 24.6967 32.2782 23.1365C35.0736 21.8786 38.471 22.5108 40.7736 23.2335C40.753 23.1955 40.7343 23.1566 40.7128 23.1189C36.8674 16.3963 43.3735 12.1549 43.6087 12.0044C42.3827 11.9834 41.1648 12.053 39.9801 12.2144Z" fill="#543E5B"/>
<path d="M62.8738 38.2653C62.0695 37.5282 60.4675 37.9018 59.775 38.3531C59.9268 39.298 59.9354 40.2648 59.8042 41.2195L58.9867 47.1728C58.9867 47.6527 58.9716 48.1235 58.9438 48.5862C60.937 49.1875 61.927 47.398 62.094 46.17C62.1657 45.6414 62.2831 45.1205 62.4459 44.6121C62.9762 42.956 64.8889 40.1119 62.8738 38.2653Z" fill="#FFCEBF"/>
<path d="M23.9631 38.2653C24.7672 37.5282 26.3694 37.9018 27.062 38.3531C26.9102 39.298 26.9015 40.2648 27.0328 41.2195L27.8502 47.1728C27.8502 47.6527 27.8654 48.1235 27.8931 48.5862C25.8999 49.1875 24.9099 47.398 24.7429 46.17C24.6712 45.6414 24.5539 45.1205 24.391 44.6121C23.8607 42.956 21.948 40.1119 23.9631 38.2653Z" fill="#FFCEBF"/>
<path d="M33.2498 70.9716C34.3444 73.6253 36.2869 76.123 39.0235 78.3951C39.3588 78.6732 39.56 79.0831 39.5759 79.5195L39.5855 79.7827H47.2517L47.2612 79.5197C47.2771 79.0831 47.4786 78.6732 47.8136 78.3951C50.5503 76.123 52.4929 73.6253 53.5876 70.9716C54.344 69.1379 54.5555 67.5661 54.5737 66.4321C53.9659 64.6395 53.7555 62.6061 53.7001 60.9944C52.6616 62.204 51.5716 63.2157 50.5303 64.0246C48.5014 65.6001 45.9974 66.4559 43.4187 66.4559C40.8398 66.4559 38.336 65.6001 36.3071 64.0246C35.2656 63.2157 34.1756 62.204 33.1373 60.9944C33.0819 62.6059 32.8713 64.6391 32.2637 66.432C32.2816 67.5661 32.4935 69.1379 33.2498 70.9716Z" fill="#F7C6B7"/>
<path d="M47.1159 102.656C51.0541 95.6926 53.5663 88.7996 55.1653 82.7269C54.5586 83.6601 53.9828 84.5013 53.4868 85.2053C53.2247 85.5776 52.8131 85.796 52.3575 85.805C51.9 85.8099 51.4792 85.6107 51.2016 85.2474L49.5918 83.141L47.9429 86.0746C47.517 86.9265 46.6608 87.4554 45.7082 87.4554H41.1579C40.2055 87.4554 39.3495 86.9263 38.9237 86.0746L37.2631 83.1174L35.6354 85.2472C35.3578 85.6105 34.9323 85.8097 34.4795 85.8048C34.0239 85.796 33.6122 85.5774 33.3502 85.2051C32.8543 84.5011 32.2785 83.6599 31.6719 82.7269C33.2708 88.7993 35.7834 95.6922 39.7218 102.655H47.1159V102.656Z" fill="white"/>
<path d="M47.4269 79.5099C45.0177 79.5099 42.0302 79.5099 39.6209 79.5099L37.124 83.4504L38.6792 86.5609C39.1486 87.4998 40.1082 88.0928 41.1579 88.0928H45.7082C46.7579 88.0928 47.7175 87.4998 48.1869 86.5609L49.7421 83.4504L47.4269 79.5099Z" fill="#9FACBA"/>
<path d="M44.0834 86.5246C43.0955 84.5484 43.2143 82.1993 44.397 80.3332L44.9186 79.5099C43.1258 79.5099 41.2427 79.5099 39.6209 79.5099L37.124 83.4504L38.6792 86.5609C39.1486 87.4998 40.1081 88.0928 41.1579 88.0928H45.7082C45.8619 88.0928 46.0133 88.0786 46.1618 88.0541C45.2728 87.9082 44.4945 87.3467 44.0834 86.5246Z" fill="#9FACBA"/>
<path d="M50.985 85.4133C51.6783 86.3202 53.0528 86.2958 53.7102 85.3627C54.2677 84.5711 54.9539 83.5654 55.6807 82.4289C57.3138 75.9489 57.8645 70.8026 58.0814 68.1936L54.9835 65.4923C54.7061 65.2503 54.2755 65.459 54.2928 65.8266C54.3922 67.9538 53.8575 73.0228 47.6392 78.1852C46.8953 78.8028 46.7682 79.8969 47.3554 80.6649L50.985 85.4133Z" fill="white"/>
<path d="M31.1575 82.4308C31.8838 83.5665 32.5695 84.5717 33.1267 85.3627C33.7841 86.2959 35.1588 86.3202 35.852 85.4133L39.4813 80.6647C40.0685 79.8965 39.9414 78.8026 39.1976 78.1851C32.9794 73.0226 32.4446 67.9536 32.544 65.8265C32.5612 65.4588 32.1307 65.2501 31.8533 65.4921L28.7554 68.1934C28.9727 70.8026 29.524 75.9501 31.1575 82.4308Z" fill="white"/>
<path d="M37.1244 76.2608C32.856 71.8024 32.4575 67.688 32.5445 65.8265C32.5617 65.4588 32.1314 65.2501 31.8538 65.4921L28.7559 68.1934C28.9421 70.4331 29.3753 74.5437 30.5272 79.7615C31.2271 79.6313 31.8617 79.226 32.2787 78.618C34.6286 75.1918 37.1244 76.2608 37.1244 76.2608Z" fill="white"/>
<path d="M25.3291 96.2388C25.0949 95.9696 25.0708 95.5749 25.2701 95.2782L28.5071 90.4572C28.7406 90.1098 28.7982 89.6826 28.6649 89.2856C28.5319 88.8884 28.2284 88.5823 27.8325 88.4457L22.4215 86.5779C22.1293 86.477 21.921 86.2118 21.8907 85.902C21.3559 80.4588 21.7121 75.6756 21.9719 73.3088C22.0166 72.901 22.1593 72.5118 22.3768 72.1694C21.004 72.7894 19.6523 73.4784 18.3087 74.236C16.7451 75.1176 16.0392 75.6324 14.7124 75.7408C8.67287 76.2346 4.94543 79.2363 2.65576 83.0096C9.38399 96.0243 22.1611 105.403 37.268 107.428C31.3554 102.951 26.7978 97.9272 25.3291 96.2388Z" fill="#BF526B"/>
<path d="M13.9225 97.0926C14.5979 85.2839 21.3411 82.7269 21.3411 82.7269C21.4461 82.6219 21.5513 82.5208 21.6565 82.4226C21.5079 78.4705 21.7692 75.1547 21.9719 73.309C22.0166 72.9011 22.1593 72.512 22.3768 72.1696C21.004 72.7896 19.6523 73.4786 18.3087 74.2362C16.7451 75.1178 16.0392 75.6326 14.7124 75.7409C8.67305 76.2347 -1.71034 84.7267 -4 88.5C-1.20175 93.9127 9.29938 93.2053 13.9225 97.0926Z" fill="#BF526B"/>
<path d="M29.374 67.764C29.3244 67.1386 28.6004 66.8189 28.1036 67.2019L22.8302 71.2678C22.1954 71.7572 21.7875 72.4824 21.7001 73.2791C21.4566 75.4967 21.074 80.3856 21.6185 85.9288C21.6593 86.3447 21.9371 86.6996 22.3321 86.8359L27.7432 88.7038C28.4042 88.932 28.67 89.7243 28.2801 90.3048L25.0429 95.1258C24.7745 95.5256 24.8065 96.0546 25.1226 96.4178C26.5909 98.1056 30.9833 102.946 36.7123 107.35C38.8479 107.663 41.0309 107.829 43.2515 107.837C31.6568 90.693 29.7821 72.9081 29.374 67.764Z" fill="#AB3E57"/>
<path d="M29.3746 67.764C29.325 67.1386 28.6009 66.8189 28.1041 67.2019L22.8307 71.2678C22.196 71.7572 21.7881 72.4824 21.7007 73.2791C21.5062 75.0499 21.2235 78.525 21.3946 82.6753C24.504 79.6007 27.7118 79.4697 29.6172 79.7743C30.1619 79.8613 30.7051 79.7746 31.1847 79.5485C29.9561 74.1064 29.5419 69.8727 29.3746 67.764Z" fill="#AB3E57"/>
<path d="M49.606 107.423C64.6967 105.387 81.7774 100.504 88.5 87.5C86.2103 83.7267 78.1641 76.2349 72.1247 75.7411C70.7979 75.6328 70.092 75.1178 68.5284 74.2363C67.1848 73.4786 65.8332 72.7896 64.4603 72.1696C64.6778 72.512 64.8205 72.9011 64.8652 73.309C65.125 75.6758 65.4812 80.459 64.9466 85.9022C64.9163 86.2116 64.708 86.477 64.416 86.5781L59.0046 88.4459C58.6087 88.5825 58.3053 88.8885 58.1722 89.2858C58.0391 89.6826 58.0965 90.1098 58.33 90.4574L61.5672 95.2783C61.7665 95.575 61.742 95.97 61.5082 96.239C57.3776 100.987 53.2372 104.663 49.606 107.423Z" fill="#BF526B"/>
<path d="M64.0063 71.2678L58.7329 67.2019C58.2361 66.8189 57.5121 67.1386 57.4625 67.764C57.0544 72.9079 55.1814 90.6928 43.5869 107.837C45.8071 107.829 47.9899 107.663 50.1251 107.35C55.8536 102.946 60.2456 98.1058 61.7139 96.4179C62.0298 96.0546 62.062 95.5256 61.7934 95.126L58.5564 90.305C58.1665 89.7245 58.4323 88.932 59.0932 88.704L64.5044 86.8361C64.8994 86.6998 65.1772 86.3447 65.218 85.9289C65.7625 80.3858 65.3799 75.4969 65.1364 73.2793C65.049 72.4824 64.6411 71.7572 64.0063 71.2678Z" fill="#AB3E57"/>
<path d="M59.368 36.4812C58.7866 34.9641 57.8853 34.336 58.0193 32.485C58.5011 25.8357 56.0814 23.7218 54.5964 23.0536C51.6845 21.7434 48.1463 22.4415 45.6908 23.2578C44.2255 23.7452 42.6112 23.7452 41.1459 23.2578C38.6904 22.4415 35.1528 21.7433 32.2404 23.0536C30.7524 23.7229 28.3295 25.8417 28.8192 32.5076C28.9526 34.3213 28.0648 34.9491 27.4864 36.4357C26.905 37.9298 26.7167 39.5877 26.9422 41.2303L27.7589 47.1725C27.7589 56.9884 33.6976 62.6596 36.251 64.6421C40.4397 67.8952 46.3666 67.9188 50.5856 64.6421C53.139 62.6594 59.0777 56.988 59.0767 47.1851L59.8942 41.2318C60.1178 39.6057 59.9357 37.9628 59.368 36.4812Z" fill="#FFCEBF"/>
<path d="M38.0426 57.2726L38.0424 57.2724C37.7962 56.9827 37.8385 56.5635 38.1648 56.321L38.1648 56.3209C38.5102 56.0642 39.015 56.1248 39.2789 56.4352L39.2791 56.4354C39.4592 56.647 41.0106 58.3879 43.5961 58.3879C46.1815 58.3879 47.7329 56.647 47.913 56.4354L47.9134 56.435C48.177 56.1247 48.6818 56.0639 49.0272 56.3209L49.0275 56.321C49.3537 56.5633 49.3961 56.9826 49.1497 57.2724L49.1496 57.2726C48.8022 57.6815 46.8561 59.7748 43.5961 59.7748C40.336 59.7748 38.3899 57.6815 38.0426 57.2726Z" fill="#FE99A0" stroke="#FFCEBF"/>
</g>
</svg>
